Coordinates
version=1
nRows=21
nColumns=12
inDegrees=yes

Units are S.I. units (second, meters, Newtons, ...)
Angles are in degrees

endheader
time	SC_y	SC_z	SC_x	AC_y	AC_z	AC_x	GH_y	GH_z	GH_yy	EL_x	PS_y
       0.0              -15.53          28.04          8.655          42.45         -3.873         -14.21          82.35          72.65         -93.49          132.0           95.9
   0.02548              -15.53          28.05          8.665          42.46         -3.873         -14.21          82.35          72.64         -93.49          132.0           95.9
   0.05096              -15.54          28.05          8.675          42.46         -3.873         -14.21          82.35          72.62         -93.49          131.9          95.91
   0.07643              -15.54          28.05          8.687          42.46         -3.872          -14.2          82.34          72.61         -93.49          131.9          95.91
    0.1019              -15.55          28.05          8.698          42.47         -3.872          -14.2          82.34          72.59         -93.49          131.9          95.92
    0.1274              -15.55          28.05          8.711          42.47         -3.872          -14.2          82.34          72.57         -93.49          131.9          95.93
    0.1529              -15.56          28.06          8.725          42.48         -3.871          -14.2          82.34          72.55         -93.49          131.9          95.93
    0.1783              -15.56          28.06          8.739          42.48         -3.871          -14.2          82.34          72.54          -93.5          131.9          95.94
    0.2038              -15.57          28.06          8.755          42.49         -3.871         -14.19          82.34          72.51          -93.5          131.9          95.95
    0.2293              -15.58          28.06          8.771          42.49          -3.87         -14.19          82.33          72.49          -93.5          131.9          95.96
    0.2548              -15.59          28.07          8.789           42.5          -3.87         -14.19          82.33          72.47          -93.5          131.9          95.96
    0.2803              -15.59          28.07          8.808           42.5         -3.869         -14.18          82.33          72.44         -93.51          131.9          95.97
    0.3057               -15.6          28.07          8.829          42.51         -3.869         -14.18          82.33          72.41         -93.51          131.9          95.98
    0.3312              -15.61          28.08          8.852          42.52         -3.868         -14.18          82.33          72.38         -93.51          131.9          95.99
    0.3567              -15.62          28.08          8.876          42.52         -3.868         -14.17          82.32          72.35         -93.51          131.8          96.01
    0.3822              -15.63          28.09          8.902          42.53         -3.867         -14.17          82.32          72.31         -93.52          131.8          96.02
    0.4077              -15.65          28.09          8.931          42.54         -3.866         -14.16          82.32          72.28         -93.52          131.8          96.03
    0.4331              -15.66           28.1          8.962          42.55         -3.865         -14.16          82.31          72.23         -93.53          131.8          96.05
    0.4586              -15.68           28.1          8.996          42.56         -3.864         -14.15          82.31          72.19         -93.53          131.8          96.07
    0.4841              -15.69          28.11          9.033          42.57         -3.863         -14.15          82.31          72.14         -93.53          131.8          96.08
    0.5096              -15.71          28.11          9.074          42.58         -3.862         -14.14           82.3          72.08         -93.54          131.7           96.1
